<svg width="82" height="112" viewBox="0 0 82 112" fill="none" xmlns="http://www.w3.org/2000/svg">
<path d="M10.085 100.027C10.085 98.5871 8.99561 97.7076 7.55631 97.7076H3.65819V102.358H7.55631C8.99561 102.358 10.085 101.458 10.085 100.038M0 111.69V94.4766H8.04606C11.7842 94.4766 13.8233 97.0068 13.8233 100.027C13.8233 103.048 11.7642 105.579 8.04606 105.579H3.66819V111.69H0Z" fill="white"/>
<path d="M24.9879 105.448C24.9879 103.508 23.8285 101.838 21.7895 101.838C19.7505 101.838 18.621 103.518 18.621 105.448C18.621 107.379 19.7505 109.09 21.7895 109.09C23.8285 109.09 24.9879 107.409 24.9879 105.448ZM15.2227 105.448C15.2227 101.908 17.7015 98.918 21.7995 98.918C25.8975 98.918 28.4062 101.908 28.4062 105.448C28.4062 108.989 25.9274 112 21.7995 112C17.6715 112 15.2227 109.009 15.2227 105.448Z" fill="white"/>
<path d="M30.5352 105.448C30.5352 101.628 33.2938 98.918 37.1419 98.918C39.6907 98.918 41.2399 100.027 42.0695 101.158L39.9306 103.169C39.3409 102.289 38.4313 101.829 37.3019 101.829C35.3128 101.829 33.9235 103.268 33.9235 105.439C33.9235 107.609 35.3128 109.08 37.3019 109.08C38.4313 109.08 39.3409 108.559 39.9306 107.739L42.0695 109.729C41.2399 110.89 39.7007 112 37.1419 112C33.2938 112 30.5352 109.289 30.5352 105.448Z" fill="white"/>
<path d="M47.5266 111.691V102.089H44.0483V99.2285H54.3133V102.089H50.825V111.691H47.5266Z" fill="white"/>
<path d="M62.0196 101.528C59.9806 101.528 59.111 103.049 58.9511 104.289H65.0881C65.0082 103.099 64.1886 101.528 62.0196 101.528ZM55.5728 105.448C55.5728 101.838 58.2315 98.918 62.0196 98.918C65.8078 98.918 68.2566 101.708 68.2566 105.779V106.499H59.0011C59.211 108.08 60.4704 109.39 62.5893 109.39C63.6488 109.39 65.1181 108.929 65.9077 108.149L67.357 110.26C66.1176 111.4 64.1586 111.99 62.2195 111.99C58.4314 111.99 55.5728 109.439 55.5728 105.439" fill="white"/>
<path d="M78.3418 111.691L75.5032 107.49L72.6446 111.691H69.0063L73.4142 105.3L69.2662 99.2285H72.9244L75.5032 103.08L78.0519 99.2285H81.7202L77.5422 105.3L82 111.691H78.3418Z" fill="white"/>
<path d="M70.9856 38.1973V10.6621H43.6289L54.2837 0.00976562H81.7204V13.4223V27.4649L70.9856 38.1973Z" fill="white"/>
<path d="M81.7204 81.7451H54.2837L43.6289 71.0831H70.9856V43.5781L81.7204 54.3203V81.7451Z" fill="white"/>
<path d="M0.0400391 27.4649V13.4223V0H27.4767L38.1314 10.6621H10.7748V38.2071L0.0400391 27.4649Z" fill="white"/>
<path d="M0.0400391 54.3203L10.7748 43.5781V71.0831H38.1314L27.4767 81.7451H0.0400391V54.3203Z" fill="white"/>
</svg>
