<svg width="280" height="140" viewBox="0 0 280 140" fill="none" xmlns="http://www.w3.org/2000/svg">
<path d="M140 0H0V140H140V0Z" fill="white"/>
<path d="M96.5446 67.6461V43.396H72.4229L81.8189 34H106V45.824V58.1908L96.5446 67.6461Z" fill="black"/>
<path d="M106 106H81.8189L72.4229 96.6137H96.5347V72.3834L106 81.8486V106Z" fill="black"/>
<path d="M34 58.1908V45.8141V34H58.1908L67.577 43.396H43.4651V67.6461L34 58.1908Z" fill="black"/>
<path d="M34 81.8486L43.4651 72.3834V96.6039H67.577L58.1809 106H34V81.8486Z" fill="black"/>
<path d="M280 0H140V140H280V0Z" fill="#5A5A5A"/>
<path d="M179.607 93.7604V95.4972H173.69V102.26H171.769V93.7604H179.607ZM182.317 98.0179C182.317 98.4585 182.389 98.853 182.533 99.2014C182.686 99.5498 182.886 99.8469 183.132 100.093C183.388 100.329 183.691 100.513 184.039 100.646C184.387 100.769 184.761 100.831 185.161 100.831C185.561 100.831 185.935 100.769 186.283 100.646C186.631 100.513 186.928 100.329 187.174 100.093C187.431 99.8469 187.63 99.5498 187.774 99.2014C187.928 98.853 188.004 98.4585 188.004 98.0179C188.004 97.5773 187.928 97.1828 187.774 96.8344C187.63 96.486 187.431 96.194 187.174 95.9583C186.928 95.7124 186.631 95.5279 186.283 95.405C185.935 95.2718 185.561 95.2052 185.161 95.2052C184.761 95.2052 184.387 95.2718 184.039 95.405C183.691 95.5279 183.388 95.7124 183.132 95.9583C182.886 96.194 182.686 96.486 182.533 96.8344C182.389 97.1828 182.317 97.5773 182.317 98.0179ZM189.926 98.0179C189.926 98.6839 189.798 99.2936 189.541 99.8469C189.285 100.39 188.942 100.856 188.512 101.246C188.081 101.635 187.574 101.937 186.99 102.152C186.416 102.368 185.806 102.475 185.161 102.475C184.515 102.475 183.901 102.368 183.317 102.152C182.743 101.937 182.241 101.635 181.81 101.246C181.38 100.856 181.037 100.39 180.78 99.8469C180.524 99.2936 180.396 98.6839 180.396 98.0179C180.396 97.3519 180.524 96.7473 180.78 96.2042C181.037 95.6509 181.38 95.1796 181.81 94.7902C182.241 94.4008 182.743 94.0985 183.317 93.8834C183.901 93.6682 184.515 93.5606 185.161 93.5606C185.806 93.5606 186.416 93.6682 186.99 93.8834C187.574 94.0985 188.081 94.4008 188.512 94.7902C188.942 95.1796 189.285 95.6509 189.541 96.2042C189.798 96.7473 189.926 97.3519 189.926 98.0179ZM196.813 93.7604C197.192 93.7604 197.54 93.8168 197.858 93.9295C198.186 94.0319 198.468 94.1856 198.703 94.3906C198.939 94.5853 199.118 94.8209 199.241 95.0976C199.375 95.3742 199.441 95.6868 199.441 96.0352C199.441 96.3426 199.385 96.6243 199.272 96.8805C199.17 97.1264 199.006 97.3262 198.78 97.4799C199.17 97.6849 199.472 97.9615 199.687 98.3099C199.913 98.6583 200.025 99.0938 200.025 99.6164C200.025 99.9852 199.954 100.329 199.81 100.646C199.677 100.964 199.482 101.246 199.226 101.492C198.98 101.727 198.683 101.917 198.335 102.06C197.996 102.193 197.628 102.26 197.228 102.26H191.341V93.7604H196.813ZM193.262 97.0342H196.874C197.079 97.0342 197.243 96.9574 197.366 96.8037C197.499 96.6397 197.566 96.4604 197.566 96.2657C197.566 96.0813 197.505 95.9071 197.382 95.7431C197.269 95.5689 197.049 95.4818 196.721 95.4818H193.262V97.0342ZM193.262 100.523H197.166C197.474 100.523 197.715 100.441 197.889 100.277C198.063 100.103 198.15 99.8828 198.15 99.6164C198.15 99.3397 198.063 99.1194 197.889 98.9555C197.715 98.7915 197.489 98.7095 197.213 98.7095H193.262V100.523ZM203.106 98.0179C203.106 98.4585 203.178 98.853 203.321 99.2014C203.475 99.5498 203.675 99.8469 203.921 100.093C204.177 100.329 204.479 100.513 204.827 100.646C205.176 100.769 205.55 100.831 205.949 100.831C206.349 100.831 206.723 100.769 207.071 100.646C207.42 100.513 207.717 100.329 207.963 100.093C208.219 99.8469 208.419 99.5498 208.562 99.2014C208.716 98.853 208.793 98.4585 208.793 98.0179C208.793 97.5773 208.716 97.1828 208.562 96.8344C208.419 96.486 208.219 96.194 207.963 95.9583C207.717 95.7124 207.42 95.5279 207.071 95.405C206.723 95.2718 206.349 95.2052 205.949 95.2052C205.55 95.2052 205.176 95.2718 204.827 95.405C204.479 95.5279 204.177 95.7124 203.921 95.9583C203.675 96.194 203.475 96.486 203.321 96.8344C203.178 97.1828 203.106 97.5773 203.106 98.0179ZM210.714 98.0179C210.714 98.6839 210.586 99.2936 210.33 99.8469C210.074 100.39 209.73 100.856 209.3 101.246C208.87 101.635 208.363 101.937 207.778 102.152C207.205 102.368 206.595 102.475 205.949 102.475C205.304 102.475 204.689 102.368 204.105 102.152C203.531 101.937 203.029 101.635 202.599 101.246C202.168 100.856 201.825 100.39 201.569 99.8469C201.313 99.2936 201.185 98.6839 201.185 98.0179C201.185 97.3519 201.313 96.7473 201.569 96.2042C201.825 95.6509 202.168 95.1796 202.599 94.7902C203.029 94.4008 203.531 94.0985 204.105 93.8834C204.689 93.6682 205.304 93.5606 205.949 93.5606C206.595 93.5606 207.205 93.6682 207.778 93.8834C208.363 94.0985 208.87 94.4008 209.3 94.7902C209.73 95.1796 210.074 95.6509 210.33 96.2042C210.586 96.7473 210.714 97.3519 210.714 98.0179ZM217.14 93.7604C217.642 93.7604 218.104 93.8424 218.524 94.0063C218.954 94.16 219.323 94.3854 219.63 94.6826C219.948 94.9695 220.194 95.3179 220.368 95.7278C220.553 96.1376 220.645 96.5936 220.645 97.0957C220.645 97.5978 220.553 98.0538 220.368 98.4636C220.194 98.8632 219.948 99.2065 219.63 99.4934C219.323 99.7701 218.954 99.9852 218.524 100.139C218.104 100.293 217.642 100.369 217.14 100.369H214.051V102.26H212.13V93.7604H217.14ZM214.051 98.6173H217.064C217.555 98.6173 217.955 98.4892 218.262 98.2331C218.57 97.9667 218.723 97.5875 218.723 97.0957C218.723 96.6038 218.57 96.2196 218.262 95.9429C217.955 95.656 217.555 95.5126 217.064 95.5126H214.051V98.6173ZM223.852 93.7604V99.6625L228.909 93.7604H230.769V102.26H228.863V96.3887L223.821 102.26H221.946V93.7604H223.852ZM240.833 93.7604V95.4818H237.375V102.26H235.454V95.4818H231.995V93.7604H240.833Z" fill="white"/>
<path d="M177.704 105.61C178.287 105.61 178.821 105.705 179.309 105.895C179.808 106.074 180.236 106.335 180.593 106.68C180.961 107.013 181.246 107.417 181.448 107.892C181.662 108.368 181.769 108.897 181.769 109.479C181.769 110.062 181.662 110.591 181.448 111.066C181.246 111.53 180.961 111.928 180.593 112.261C180.236 112.582 179.808 112.831 179.309 113.009C178.821 113.188 178.287 113.277 177.704 113.277H174.12V115.47H171.892V105.61H177.704ZM174.12 111.244H177.615C178.185 111.244 178.649 111.096 179.006 110.799C179.362 110.489 179.541 110.05 179.541 109.479C179.541 108.909 179.362 108.463 179.006 108.142C178.649 107.809 178.185 107.643 177.615 107.643H174.12V111.244ZM185.365 110.549C185.365 111.06 185.448 111.518 185.615 111.922C185.793 112.326 186.025 112.671 186.31 112.956C186.607 113.229 186.958 113.443 187.362 113.598C187.766 113.74 188.2 113.812 188.664 113.812C189.127 113.812 189.561 113.74 189.965 113.598C190.369 113.443 190.714 113.229 190.999 112.956C191.297 112.671 191.528 112.326 191.695 111.922C191.873 111.518 191.962 111.06 191.962 110.549C191.962 110.038 191.873 109.58 191.695 109.176C191.528 108.772 191.297 108.433 190.999 108.16C190.714 107.874 190.369 107.66 189.965 107.518C189.561 107.363 189.127 107.286 188.664 107.286C188.2 107.286 187.766 107.363 187.362 107.518C186.958 107.66 186.607 107.874 186.31 108.16C186.025 108.433 185.793 108.772 185.615 109.176C185.448 109.58 185.365 110.038 185.365 110.549ZM194.191 110.549C194.191 111.322 194.042 112.029 193.745 112.671C193.448 113.301 193.05 113.842 192.551 114.293C192.051 114.745 191.463 115.096 190.785 115.345C190.12 115.595 189.413 115.72 188.664 115.72C187.915 115.72 187.202 115.595 186.524 115.345C185.858 115.096 185.276 114.745 184.777 114.293C184.277 113.842 183.879 113.301 183.582 112.671C183.285 112.029 183.136 111.322 183.136 110.549C183.136 109.776 183.285 109.075 183.582 108.445C183.879 107.803 184.277 107.256 184.777 106.805C185.276 106.353 185.858 106.002 186.524 105.753C187.202 105.503 187.915 105.378 188.664 105.378C189.413 105.378 190.12 105.503 190.785 105.753C191.463 106.002 192.051 106.353 192.551 106.805C193.05 107.256 193.448 107.803 193.745 108.445C194.042 109.075 194.191 109.776 194.191 110.549ZM204.427 109.016C204.047 108.481 203.595 108.071 203.072 107.785C202.561 107.5 201.913 107.357 201.129 107.357C200.629 107.357 200.178 107.435 199.774 107.589C199.381 107.732 199.043 107.946 198.757 108.231C198.472 108.504 198.252 108.837 198.098 109.23C197.943 109.622 197.866 110.062 197.866 110.549C197.866 111.024 197.943 111.458 198.098 111.851C198.264 112.243 198.49 112.582 198.775 112.867C199.06 113.14 199.399 113.354 199.791 113.509C200.196 113.663 200.641 113.74 201.129 113.74C201.913 113.74 202.561 113.598 203.072 113.313C203.595 113.027 204.047 112.617 204.427 112.082L206.157 113.081C205.646 113.949 204.974 114.608 204.142 115.06C203.31 115.5 202.317 115.72 201.164 115.72C200.38 115.72 199.649 115.601 198.971 115.363C198.294 115.125 197.711 114.787 197.224 114.347C196.737 113.895 196.35 113.348 196.065 112.706C195.792 112.064 195.655 111.345 195.655 110.549C195.655 109.753 195.797 109.033 196.083 108.391C196.368 107.75 196.754 107.209 197.242 106.769C197.741 106.317 198.323 105.973 198.989 105.735C199.667 105.497 200.392 105.378 201.164 105.378C202.317 105.378 203.31 105.604 204.142 106.056C204.974 106.496 205.646 107.149 206.157 108.017L204.427 109.016ZM217.447 105.61V107.607H213.435V115.47H211.207V107.607H207.195V105.61H217.447ZM227.82 105.61V107.625H221.098V109.443H227.142V111.458H221.098V113.42H228.07V115.47H218.869V105.61H227.82ZM232.035 105.61L234.62 109.408H235.244L237.829 105.61H240.361L237.063 110.281L240.557 115.47H237.972L235.28 111.405H234.584L231.892 115.47H229.307L232.819 110.335L229.503 105.61H232.035Z" fill="white"/>
<path d="M249.16 47.63L225.29 47.64L204.59 68.33H228.46L249.16 47.63Z" fill="#CCFF00"/>
<path d="M205.09 19L188.21 35.88H249.16V19H205.09Z" fill="#CCFF00"/>
<path d="M171.83 52.27L188.7 35.39V85.09H171.83V52.27Z" fill="#CCFF00"/>
</svg>
