<svg width="499" height="89" viewBox="0 0 499 89" fill="none" xmlns="http://www.w3.org/2000/svg">
<path d="M64.3137 49.4595V24.6426H39.5083L49.1655 15.0358H74.0416V27.1273V39.7823L64.3137 49.4595Z" fill="white"/>
<path d="M74.0416 88.7015H49.1655L39.5083 79.0946H64.3137V54.3079L74.0416 63.9852V88.7015Z" fill="white"/>
<path d="M0 39.7824V27.1275V15.0359H24.866L34.5232 24.6428H9.72798V49.4596L0 39.7824Z" fill="white"/>
<path d="M0 63.9852L9.72798 54.3079V79.0845H34.5232L24.866 88.6914L0 88.7015V63.9852Z" fill="white"/>
<path d="M230.652 46.9439L203.895 46.954L180.717 70.0205H207.454L230.652 46.9439Z" fill="#CCFF00"/>
<path d="M181.274 15.0358L162.354 33.8471H230.652V15.0358H181.274Z" fill="#CCFF00"/>
<path d="M144 52.1148L162.91 33.3035V88.7013H144V52.1148Z" fill="#CCFF00"/>
<path d="M498.288 0.666985V6.41259H486.746V29.0359H480.333V6.41259H468.791V0.666985H498.288Z" fill="#CCFF00"/>
<path d="M441.61 0.666985V20.3662L458.488 0.666985H464.695V29.0359H458.334V9.43928L441.508 29.0359H435.249V0.666985H441.61Z" fill="#CCFF00"/>
<path d="M419.209 0.666985C420.884 0.666985 422.423 0.940585 423.826 1.48779C425.262 2.00079 426.493 2.75319 427.519 3.74498C428.579 4.70258 429.4 5.86539 429.982 7.23339C430.597 8.60139 430.905 10.1233 430.905 11.7991C430.905 13.4749 430.597 14.9968 429.982 16.3648C429.4 17.6986 428.579 18.8443 427.519 19.8019C426.493 20.7253 425.262 21.4435 423.826 21.9565C422.423 22.4695 420.884 22.726 419.209 22.726H408.897V29.0359H402.485V0.666985H419.209ZM408.897 16.8778H418.952C420.594 16.8778 421.928 16.4503 422.954 15.5953C423.98 14.7061 424.493 13.4407 424.493 11.7991C424.493 10.1575 423.98 8.87498 422.954 7.95158C421.928 6.99399 420.594 6.51519 418.952 6.51519H408.897V16.8778Z" fill="#CCFF00"/>
<path d="M372.367 14.8771C372.367 16.3477 372.606 17.6644 373.085 18.8272C373.598 19.99 374.265 20.9818 375.086 21.8026C375.941 22.5892 376.949 23.2048 378.112 23.6494C379.275 24.0598 380.523 24.265 381.857 24.265C383.191 24.265 384.439 24.0598 385.602 23.6494C386.765 23.2048 387.757 22.5892 388.577 21.8026C389.432 20.9818 390.099 19.99 390.578 18.8272C391.091 17.6644 391.348 16.3477 391.348 14.8771C391.348 13.4065 391.091 12.0898 390.578 10.927C390.099 9.76418 389.432 8.78948 388.577 8.00288C387.757 7.18209 386.765 6.56649 385.602 6.15609C384.439 5.71149 383.191 5.48919 381.857 5.48919C380.523 5.48919 379.275 5.71149 378.112 6.15609C376.949 6.56649 375.941 7.18209 375.086 8.00288C374.265 8.78948 373.598 9.76418 373.085 10.927C372.606 12.0898 372.367 13.4065 372.367 14.8771ZM397.76 14.8771C397.76 17.1001 397.333 19.135 396.478 20.9818C395.623 22.7944 394.477 24.3505 393.041 25.6501C391.604 26.9497 389.911 27.9586 387.962 28.6768C386.047 29.395 384.012 29.7541 381.857 29.7541C379.703 29.7541 377.651 29.395 375.701 28.6768C373.786 27.9586 372.11 26.9497 370.674 25.6501C369.237 24.3505 368.092 22.7944 367.237 20.9818C366.382 19.135 365.954 17.1001 365.954 14.8771C365.954 12.6541 366.382 10.6363 367.237 8.82369C368.092 6.97689 369.237 5.40369 370.674 4.10408C372.11 2.80448 373.786 1.79558 375.701 1.07738C377.651 0.359184 379.703 8.39233e-05 381.857 8.39233e-05C384.012 8.39233e-05 386.047 0.359184 387.962 1.07738C389.911 1.79558 391.604 2.80448 393.041 4.10408C394.477 5.40369 395.623 6.97689 396.478 8.82369C397.333 10.6363 397.76 12.6541 397.76 14.8771Z" fill="#CCFF00"/>
<path d="M351.362 0.666985C352.628 0.666985 353.791 0.855084 354.851 1.23128C355.945 1.57328 356.886 2.08629 357.672 2.77028C358.459 3.42008 359.057 4.20668 359.468 5.13008C359.912 6.05349 360.135 7.09659 360.135 8.25939C360.135 9.28539 359.947 10.2259 359.57 11.0809C359.228 11.9017 358.681 12.5686 357.929 13.0816C359.228 13.7656 360.237 14.689 360.956 15.8518C361.708 17.0146 362.084 18.4681 362.084 20.2123C362.084 21.4435 361.845 22.5892 361.366 23.6494C360.921 24.7096 360.272 25.6501 359.417 26.4709C358.596 27.2575 357.604 27.8902 356.441 28.369C355.313 28.8136 354.081 29.0359 352.748 29.0359H333.1V0.666985H351.362ZM339.512 11.5939H351.568C352.252 11.5939 352.799 11.3374 353.209 10.8244C353.654 10.2772 353.876 9.67869 353.876 9.02889C353.876 8.41329 353.671 7.83188 353.261 7.28468C352.884 6.70328 352.149 6.41259 351.055 6.41259H339.512V11.5939ZM339.512 23.239H352.542C353.568 23.239 354.372 22.9654 354.953 22.4182C355.535 21.8368 355.826 21.1015 355.826 20.2123C355.826 19.2889 355.535 18.5536 354.953 18.0064C354.372 17.4592 353.62 17.1856 352.696 17.1856H339.512V23.239Z" fill="#CCFF00"/>
<path d="M302.981 14.8771C302.981 16.3477 303.221 17.6644 303.7 18.8272C304.213 19.99 304.879 20.9818 305.7 21.8026C306.555 22.5892 307.564 23.2048 308.727 23.6494C309.89 24.0598 311.138 24.265 312.472 24.265C313.806 24.265 315.054 24.0598 316.217 23.6494C317.38 23.2048 318.371 22.5892 319.192 21.8026C320.047 20.9818 320.714 19.99 321.193 18.8272C321.706 17.6644 321.962 16.3477 321.962 14.8771C321.962 13.4065 321.706 12.0898 321.193 10.927C320.714 9.76418 320.047 8.78948 319.192 8.00288C318.371 7.18209 317.38 6.56649 316.217 6.15609C315.054 5.71149 313.806 5.48919 312.472 5.48919C311.138 5.48919 309.89 5.71149 308.727 6.15609C307.564 6.56649 306.555 7.18209 305.7 8.00288C304.879 8.78948 304.213 9.76418 303.7 10.927C303.221 12.0898 302.981 13.4065 302.981 14.8771ZM328.375 14.8771C328.375 17.1001 327.947 19.135 327.092 20.9818C326.237 22.7944 325.092 24.3505 323.655 25.6501C322.219 26.9497 320.526 27.9586 318.577 28.6768C316.661 29.395 314.626 29.7541 312.472 29.7541C310.317 29.7541 308.265 29.395 306.316 28.6768C304.401 27.9586 302.725 26.9497 301.288 25.6501C299.852 24.3505 298.706 22.7944 297.851 20.9818C296.996 19.135 296.569 17.1001 296.569 14.8771C296.569 12.6541 296.996 10.6363 297.851 8.82369C298.706 6.97689 299.852 5.40369 301.288 4.10408C302.725 2.80448 304.401 1.79558 306.316 1.07738C308.265 0.359184 310.317 8.39233e-05 312.472 8.39233e-05C314.626 8.39233e-05 316.661 0.359184 318.577 1.07738C320.526 1.79558 322.219 2.80448 323.655 4.10408C325.092 5.40369 326.237 6.97689 327.092 8.82369C327.947 10.6363 328.375 12.6541 328.375 14.8771Z" fill="#CCFF00"/>
<path d="M293.935 0.666985V6.46388H274.185V29.0359H267.772V0.666985H293.935Z" fill="#CCFF00"/>
<path d="M468.547 40.775L477.174 53.4485H479.257L487.884 40.775H496.333L485.326 56.364L496.988 73.6785H488.36L479.376 60.1125H477.055L468.071 73.6785H459.443L471.165 56.5425L460.098 40.775H468.547Z" fill="#CCFF00"/>
<path d="M454.483 40.775V47.4985H432.051V53.5675H452.222V60.291H432.051V66.836H455.316V73.6785H424.614V40.775H454.483Z" fill="#CCFF00"/>
<path d="M419.868 40.775V47.439H406.48V73.6785H399.043V47.439H385.655V40.775H419.868Z" fill="#CCFF00"/>
<path d="M376.419 52.1395C375.15 50.3545 373.642 48.986 371.897 48.034C370.191 47.082 368.03 46.606 365.412 46.606C363.746 46.606 362.238 46.8638 360.89 47.3795C359.581 47.8555 358.45 48.5695 357.498 49.5215C356.546 50.4338 355.812 51.5445 355.297 52.8535C354.781 54.1625 354.523 55.6302 354.523 57.2565C354.523 58.8432 354.781 60.291 355.297 61.6C355.852 62.909 356.606 64.0395 357.558 64.9915C358.51 65.9038 359.64 66.6178 360.949 67.1335C362.298 67.6492 363.785 67.907 365.412 67.907C368.03 67.907 370.191 67.431 371.897 66.479C373.642 65.527 375.15 64.1585 376.419 62.3735L382.191 65.7055C380.485 68.6012 378.244 70.8027 375.467 72.31C372.69 73.7777 369.378 74.5115 365.531 74.5115C362.913 74.5115 360.473 74.1148 358.212 73.3215C355.951 72.5282 354.007 71.3977 352.381 69.93C350.755 68.4227 349.466 66.598 348.514 64.456C347.601 62.314 347.145 59.9142 347.145 57.2565C347.145 54.5988 347.621 52.199 348.573 50.057C349.525 47.915 350.814 46.1102 352.441 44.6425C354.107 43.1352 356.05 41.9848 358.272 41.1915C360.533 40.3982 362.952 40.0015 365.531 40.0015C369.378 40.0015 372.69 40.7552 375.467 42.2625C378.244 43.7302 380.485 45.9118 382.191 48.8075L376.419 52.1395Z" fill="#CCFF00"/>
<path d="M312.808 57.2565C312.808 58.9622 313.085 60.4893 313.641 61.838C314.236 63.1867 315.009 64.337 315.961 65.289C316.953 66.2013 318.123 66.9153 319.472 67.431C320.82 67.907 322.268 68.145 323.815 68.145C325.362 68.145 326.81 67.907 328.159 67.431C329.507 66.9153 330.658 66.2013 331.61 65.289C332.601 64.337 333.375 63.1867 333.93 61.838C334.525 60.4893 334.823 58.9622 334.823 57.2565C334.823 55.5508 334.525 54.0237 333.93 52.675C333.375 51.3263 332.601 50.1958 331.61 49.2835C330.658 48.3315 329.507 47.6175 328.159 47.1415C326.81 46.6258 325.362 46.368 323.815 46.368C322.268 46.368 320.82 46.6258 319.472 47.1415C318.123 47.6175 316.953 48.3315 315.961 49.2835C315.009 50.1958 314.236 51.3263 313.641 52.675C313.085 54.0237 312.808 55.5508 312.808 57.2565ZM342.26 57.2565C342.26 59.8348 341.764 62.195 340.773 64.337C339.781 66.4393 338.452 68.2442 336.786 69.7515C335.12 71.2588 333.157 72.429 330.896 73.262C328.674 74.095 326.314 74.5115 323.815 74.5115C321.316 74.5115 318.936 74.095 316.675 73.262C314.454 72.429 312.51 71.2588 310.844 69.7515C309.178 68.2442 307.849 66.4393 306.858 64.337C305.866 62.195 305.37 59.8348 305.37 57.2565C305.37 54.6782 305.866 52.3378 306.858 50.2355C307.849 48.0935 309.178 46.2688 310.844 44.7615C312.51 43.2542 314.454 42.084 316.675 41.251C318.936 40.418 321.316 40.0015 323.815 40.0015C326.314 40.0015 328.674 40.418 330.896 41.251C333.157 42.084 335.12 43.2542 336.786 44.7615C338.452 46.2688 339.781 48.0935 340.773 50.2355C341.764 52.3378 342.26 54.6782 342.26 57.2565Z" fill="#CCFF00"/>
<path d="M287.242 40.775C289.186 40.775 290.971 41.0923 292.597 41.727C294.263 42.322 295.691 43.1947 296.881 44.345C298.111 45.4557 299.063 46.8043 299.737 48.391C300.451 49.9777 300.808 51.7428 300.808 53.6865C300.808 55.6302 300.451 57.3953 299.737 58.982C299.063 60.529 298.111 61.8578 296.881 62.9685C295.691 64.0395 294.263 64.8725 292.597 65.4675C290.971 66.0625 289.186 66.36 287.242 66.36H275.283V73.6785H267.845V40.775H287.242ZM275.283 59.577H286.945C288.849 59.577 290.396 59.0812 291.586 58.0895C292.776 57.0582 293.371 55.5905 293.371 53.6865C293.371 51.7825 292.776 50.295 291.586 49.224C290.396 48.1133 288.849 47.558 286.945 47.558H275.283V59.577Z" fill="#CCFF00"/>
</svg>
